<svg xmlns="http://www.w3.org/2000/svg" viewBox="0 0 1080 10956.39">
  <defs>
    <style>
      .a {
        font-size: 48px;
        font-family: SourceHanSerifSC-Bold-GBpc-EUC-H, Source Han Serif SC;
      }

      .b {
        letter-spacing: 0.25em;
      }

      .ad, .ae, .af, .ar, .c {
        font-family: SourceHanSerifSC-SemiBold-GBpc-EUC-H, Source Han Serif SC;
      }

      .d {
        letter-spacing: 0.25em;
      }

      .ae, .e {
        letter-spacing: 0.5em;
      }

      .ak, .am, .f, .g, .h, .i, .j, .k, .q, .v {
        font-family: SourceHanSerifSC-Medium-GBpc-EUC-H, Source Han Serif SC;
      }

      .g {
        letter-spacing: -0.01em;
      }

      .h, .l {
        letter-spacing: 0.49em;
      }

      .i {
        letter-spacing: 0.21em;
      }

      .j {
        letter-spacing: 0em;
      }

      .k {
        letter-spacing: 0.47em;
      }

      .m {
        letter-spacing: -0.02em;
      }

      .n {
        letter-spacing: 0em;
      }

      .af, .o {
        letter-spacing: 0.5em;
      }

      .p {
        font-size: 30px;
        font-family: SourceHanSerifSC-Light-GBpc-EUC-H, Source Han Serif SC;
      }

      .q, .u {
        letter-spacing: 0.22em;
      }

      .am, .r {
        letter-spacing: 0.24em;
      }

      .s {
        letter-spacing: 0em;
      }

      .t {
        letter-spacing: 0.48em;
      }

      .v {
        letter-spacing: -0.08em;
      }

      .w {
        letter-spacing: 0.18em;
      }

      .x {
        letter-spacing: 0.48em;
      }

      .y {
        letter-spacing: 0.19em;
      }

      .z {
        letter-spacing: 0.46em;
      }

      .aa {
        letter-spacing: 0em;
      }

      .ab {
        letter-spacing: -0.04em;
      }

      .ac {
        letter-spacing: -0.25em;
      }

      .ad {
        letter-spacing: -0.03em;
      }

      .ag {
        letter-spacing: 0.2em;
      }

      .ah {
        letter-spacing: -0.02em;
      }

      .ai {
        letter-spacing: -0.08em;
      }

      .aj {
        letter-spacing: 0.45em;
      }

      .ak {
        letter-spacing: -0.01em;
      }

      .al {
        letter-spacing: 0em;
      }

      .an {
        font-size: 54px;
        font-family: SourceHanSerifSC-Heavy-GBpc-EUC-H, Source Han Serif SC;
        letter-spacing: 0.02em;
      }

      .ao {
        letter-spacing: 0.08em;
      }

      .ap {
        letter-spacing: 0.03em;
      }

      .aq {
        letter-spacing: -0.38em;
      }

      .ar {
        font-size: 42px;
      }

      .as {
        letter-spacing: -0.02em;
      }
    </style>
  </defs>
  <text class="a" transform="translate(177.94 202.08)">【第一届】200<tspan class="b" x="324.1" y="0">9</tspan><tspan x="364.13" y="0">年华附春晚直播</tspan><tspan class="c"><tspan x="-49.94" y="80">导</tspan><tspan class="d" x="-1.94" y="80">	</tspan><tspan class="e" x="22.06" y="80" xml:space="preserve">		</tspan><tspan x="94.06" y="80">播：</tspan><tspan class="f" x="190.06" y="80" xml:space="preserve">张之骏  </tspan><tspan x="-49.94" y="160">监</tspan><tspan class="d" x="-1.94" y="160">	</tspan><tspan class="e" x="22.06" y="160" xml:space="preserve">		</tspan><tspan x="94.06" y="160">制：</tspan><tspan class="f" x="190.06" y="160">叶穗莹</tspan><tspan x="-49.94" y="240">执行导播：</tspan><tspan class="f" x="190.06" y="240">李梓见</tspan><tspan x="-49.94" y="320">技术支持：</tspan><tspan class="f" x="190.06" y="320">梁皓然</tspan><tspan x="-49.94" y="400">音响总监：</tspan><tspan class="f" x="190.06" y="400">刘子鹏</tspan><tspan x="-49.94" y="480">通信保障：</tspan><tspan class="f" x="190.06" y="480">叶穗莹</tspan><tspan class="g" x="334.06" y="480">	</tspan><tspan class="h" x="346.06" y="480">	</tspan><tspan class="f" x="382.06" y="480">李振杰</tspan><tspan x="-49.94" y="560">摄</tspan><tspan class="d" x="-1.94" y="560">	</tspan><tspan class="e" x="22.06" y="560" xml:space="preserve">		</tspan><tspan x="94.06" y="560">像：</tspan><tspan class="f" x="190.06" y="560" xml:space="preserve">张    锐  </tspan><tspan class="i" x="359.79" y="560">	</tspan><tspan class="j" x="382.07" y="560">叶艺鸣</tspan><tspan class="h" x="526.07" y="560">	</tspan><tspan class="f" x="562.07" y="560" xml:space="preserve">谢    维</tspan><tspan class="k" x="707.22" y="560">	</tspan><tspan class="h" x="742.07" y="560">	</tspan></tspan><tspan class="f"><tspan class="l" x="-49.94" y="632" xml:space="preserve">						</tspan><tspan x="166.06" y="632" xml:space="preserve">  严婉珊</tspan><tspan class="m" x="334.64" y="632">	</tspan><tspan class="l" x="346.06" y="632">	</tspan><tspan class="n" x="382.06" y="632">曹大颖</tspan><tspan class="l" x="526.06" y="632">	</tspan><tspan x="562.06" y="632">潘天亮</tspan><tspan class="l" x="706.06" y="632" xml:space="preserve">		</tspan><tspan class="l" x="-49.94" y="704" xml:space="preserve">						</tspan><tspan x="166.06" y="704" xml:space="preserve">  罗力华</tspan></tspan><tspan class="c"><tspan x="-49.94" y="784">现场收音：</tspan><tspan class="f" x="190.06" y="784">黄琬晴</tspan><tspan class="g" x="334.06" y="784">	</tspan><tspan class="h" x="346.06" y="784">	</tspan><tspan class="f" x="382.06" y="784">陈玉莹</tspan><tspan x="-49.94" y="864">网络宣传：</tspan><tspan class="f" x="190.06" y="864">刘卓德</tspan><tspan class="g" x="334.06" y="864">	</tspan><tspan class="h" x="346.06" y="864">	</tspan><tspan class="f" x="382.06" y="864">张力钧</tspan><tspan class="h" x="526.06" y="864">	</tspan><tspan class="f" x="562.06" y="864">黄伟城</tspan><tspan x="-49.94" y="944">现场采访：</tspan><tspan class="f" x="190.06" y="944">陈玉莹</tspan><tspan class="g" x="334.06" y="944">	</tspan><tspan class="h" x="346.06" y="944">	</tspan><tspan class="f" x="382.06" y="944">薛奕薇</tspan><tspan class="h" x="526.06" y="944">	</tspan><tspan class="f" x="562.06" y="944">朱宏坤</tspan><tspan class="o" x="-49.94" y="1024">宣传</tspan><tspan x="94.06" y="1024">片：</tspan><tspan class="f" x="190.06" y="1024">陈艺玲</tspan><tspan class="g" x="334.06" y="1024">	</tspan><tspan class="h" x="346.06" y="1024">	</tspan><tspan class="f" x="382.06" y="1024">陶佳麟</tspan><tspan class="h" x="526.06" y="1024">	</tspan><tspan class="f" x="562.06" y="1024">余　璐</tspan><tspan class="h" x="706.06" y="1024" xml:space="preserve">		</tspan></tspan><tspan class="f"><tspan class="l" x="-49.94" y="1096" xml:space="preserve">						</tspan><tspan x="166.06" y="1096" xml:space="preserve">  文雨轩</tspan></tspan><tspan class="c"><tspan x="-49.94" y="1176">人力资源：</tspan><tspan class="f" x="190.06" y="1176">黄卡迪</tspan><tspan x="-49.94" y="1256">摄</tspan><tspan class="d" x="-1.94" y="1256">	</tspan><tspan class="e" x="22.06" y="1256" xml:space="preserve">		</tspan><tspan x="94.06" y="1256">影：</tspan><tspan class="f" x="190.06" y="1256">邱慧莲</tspan><tspan class="g" x="334.06" y="1256">	</tspan><tspan class="h" x="346.06" y="1256">	</tspan><tspan class="f" x="382.06" y="1256">李俊杰</tspan></tspan><tspan x="0" y="1416">【第二届】201</tspan><tspan class="b" x="324.1" y="1416">0</tspan><tspan x="364.13" y="1416">年华附春晚直播</tspan><tspan class="f"><tspan x="-22.8" y="1496" xml:space="preserve">文雨轩  陈玉莹  叶艺鸣  周任然</tspan><tspan class="p" x="626.93" y="1496">（未完）</tspan></tspan><tspan x="0" y="1656">【第三届】201</tspan><tspan class="b" x="324.1" y="1656">1</tspan><tspan x="364.13" y="1656">年华附春晚直播</tspan><tspan class="f"><tspan x="139.06" y="1736" xml:space="preserve">易   尧    刘冬琳</tspan><tspan class="p" x="465.07" y="1736">（未完）</tspan></tspan><tspan x="0" y="1896">【第四届】201</tspan><tspan class="b" x="324.1" y="1896">2</tspan><tspan x="364.13" y="1896">年华附春晚直播</tspan><tspan class="f"><tspan x="49.2" y="1976" xml:space="preserve">林宸剑   蔡紫然   罗凯琳</tspan><tspan class="p" x="554.93" y="1976">（未完）</tspan></tspan><tspan x="0" y="2136">【第五届】201</tspan><tspan class="b" x="324.1" y="2136">3</tspan><tspan x="364.13" y="2136">年华附春晚直播</tspan><tspan class="c"><tspan class="o" x="-49.94" y="2216">总负</tspan><tspan x="94.06" y="2216">责：</tspan><tspan class="f" x="190.06" y="2216" xml:space="preserve">汪啸林    张光远</tspan><tspan x="-49.94" y="2296">摄像组长：</tspan><tspan class="f" x="190.06" y="2296">张琳冬</tspan><tspan x="-49.94" y="2376">灯光组长：</tspan><tspan class="f" x="190.06" y="2376">张光远</tspan><tspan x="-49.94" y="2456">导</tspan><tspan class="d" x="-1.94" y="2456">	</tspan><tspan class="e" x="22.06" y="2456" xml:space="preserve">		</tspan><tspan x="94.06" y="2456">播：</tspan><tspan class="f" x="190.06" y="2456">李坰其</tspan><tspan class="g" x="334.06" y="2456">	</tspan><tspan class="h" x="346.06" y="2456">	</tspan><tspan class="f" x="382.06" y="2456">何姗美</tspan></tspan><tspan x="0" y="2616">【第六届】201</tspan><tspan class="b" x="324.1" y="2616">4</tspan><tspan x="364.13" y="2616">年华附春晚直播</tspan><tspan class="c"><tspan x="-49.94" y="2696">总负责人：</tspan><tspan class="f" x="190.06" y="2696" xml:space="preserve">李坰其    覃靖文</tspan><tspan x="-49.94" y="2776">摄像负责：</tspan><tspan class="f" x="190.06" y="2776" xml:space="preserve">李坰其    何姗美</tspan><tspan x="-49.94" y="2856">导</tspan><tspan class="d" x="-1.94" y="2856">	</tspan><tspan class="e" x="22.06" y="2856" xml:space="preserve">		</tspan><tspan x="94.06" y="2856">播：</tspan><tspan class="f" x="190.06" y="2856" xml:space="preserve">全昱翰    马晓薇</tspan><tspan x="-49.94" y="2936">灯光组长：</tspan><tspan class="f" x="190.06" y="2936" xml:space="preserve">陈彦霖    钟哲灏</tspan><tspan class="o" x="-49.94" y="3016">信息</tspan><tspan x="94.06" y="3016">部：</tspan><tspan class="f" x="190.06" y="3016">刘崔源</tspan><tspan class="g" x="334.06" y="3016">	</tspan><tspan class="h" x="346.06" y="3016">	</tspan><tspan class="f" x="382.06" y="3016">苏向宇</tspan><tspan class="h" x="526.06" y="3016">	</tspan><tspan class="f" x="562.06" y="3016" xml:space="preserve">吴栖瑞    </tspan><tspan class="q" x="755.22" y="3016">	</tspan></tspan><tspan class="f"><tspan class="l" x="-49.94" y="3088" xml:space="preserve">						</tspan><tspan x="166.06" y="3088" xml:space="preserve">  罗静莹</tspan><tspan class="m" x="334.64" y="3088">	</tspan><tspan class="l" x="346.06" y="3088">	</tspan><tspan class="n" x="382.06" y="3088">李</tspan><tspan class="r" x="430.06" y="3088">	</tspan><tspan class="s" x="454.06" y="3088" xml:space="preserve">  顺</tspan><tspan class="t" x="526.64" y="3088">	</tspan><tspan x="562.06" y="3088" xml:space="preserve">李富哲    </tspan><tspan class="u" x="755.22" y="3088">	</tspan><tspan class="l" x="-49.94" y="3160" xml:space="preserve">						</tspan><tspan x="166.06" y="3160" xml:space="preserve">  麦崇俨    邱一涵</tspan></tspan><tspan x="0" y="3320">【第七届】201</tspan><tspan class="b" x="324.1" y="3320">5</tspan><tspan x="364.13" y="3320">年华附春晚直播</tspan><tspan class="c"><tspan x="-49.94" y="3400">总负责人：</tspan><tspan class="f" x="190.06" y="3400">全昱翰</tspan><tspan class="g" x="334.06" y="3400">	</tspan><tspan class="h" x="346.06" y="3400">	</tspan><tspan class="f" x="382.06" y="3400">吴栖瑞</tspan><tspan class="h" x="526.06" y="3400">	</tspan><tspan class="f" x="562.06" y="3400">刘崔源</tspan><tspan x="-49.94" y="3480">技术指导：</tspan><tspan class="f" x="190.06" y="3480">李坰其</tspan><tspan class="g" x="334.06" y="3480">	</tspan><tspan class="h" x="346.06" y="3480">	</tspan><tspan class="f" x="382.06" y="3480">覃靖文</tspan><tspan x="-49.94" y="3560">拍摄总控：</tspan><tspan class="f" x="190.06" y="3560">吴恩穗</tspan><tspan x="-49.94" y="3640">导</tspan><tspan class="d" x="-1.94" y="3640">	</tspan><tspan class="e" x="22.06" y="3640" xml:space="preserve">		</tspan><tspan x="94.06" y="3640">播：</tspan><tspan class="f" x="190.06" y="3640" xml:space="preserve">吴映茜    曾子弘</tspan><tspan class="o" x="-49.94" y="3720">调音</tspan><tspan x="94.06" y="3720">台：</tspan><tspan class="f" x="190.06" y="3720">邓</tspan><tspan class="h" x="238.06" y="3720">	</tspan><tspan class="f" x="274.06" y="3720" xml:space="preserve"> 汇    罗致杰</tspan><tspan x="-49.94" y="3800">现场拍摄：</tspan><tspan class="f" x="190.06" y="3800" xml:space="preserve">曾子博    崔映茜    吴洲同    </tspan><tspan class="v" x="769.52" y="3800">	</tspan></tspan><tspan class="f"><tspan class="l" x="-49.94" y="3872" xml:space="preserve">						</tspan><tspan x="166.06" y="3872" xml:space="preserve">  郑天响    曾亿诚    唐艺珉</tspan><tspan class="w" x="720.94" y="3872">	</tspan><tspan class="l" x="742.07" y="3872">	</tspan><tspan class="l" x="-49.94" y="3944" xml:space="preserve">						</tspan><tspan x="166.06" y="3944" xml:space="preserve">  刘</tspan><tspan class="x" x="238.64" y="3944">	</tspan><tspan x="274.06" y="3944" xml:space="preserve"> 君    李丹妮    周美庄</tspan><tspan class="y" x="720.66" y="3944">	</tspan><tspan class="l" x="742.07" y="3944">	</tspan><tspan class="l" x="-49.94" y="4016" xml:space="preserve">						</tspan><tspan x="166.06" y="4016" xml:space="preserve">  郑键欣    蔡雅荻</tspan><tspan class="z" x="527.79" y="4016">	</tspan><tspan class="aa" x="562.07" y="4016" xml:space="preserve"> 尤华杰    </tspan><tspan class="ab" x="767.51" y="4016">	</tspan><tspan class="l" x="-49.94" y="4088" xml:space="preserve">						</tspan><tspan x="166.06" y="4088" xml:space="preserve">  张书洋    甘    露 </tspan></tspan><tspan class="o" x="-49.94" y="4168">信息</tspan><tspan x="94.06" y="4168">部</tspan><tspan class="ac" x="142.06" y="4168">：</tspan><tspan class="f"><tspan x="-49.94" y="4248" xml:space="preserve">    </tspan><tspan class="c" x="-0.78" y="4248">上</tspan><tspan class="ad" x="47.22" y="4248">	</tspan><tspan class="ae" x="58.06" y="4248" xml:space="preserve">		</tspan><tspan class="c" x="130.06" y="4248" xml:space="preserve"> 传：</tspan><tspan x="238.26" y="4248">刘崔源</tspan><tspan x="-49.94" y="4328" xml:space="preserve">    </tspan><tspan class="c" x="-0.78" y="4328">特</tspan><tspan class="ad" x="47.22" y="4328">	</tspan><tspan class="ae" x="58.06" y="4328" xml:space="preserve">		</tspan><tspan class="c" x="130.06" y="4328" xml:space="preserve"> 效：</tspan><tspan x="238.26" y="4328" xml:space="preserve">冼晋毅    吴栖瑞</tspan><tspan x="-49.94" y="4408" xml:space="preserve">    </tspan><tspan class="c" x="-0.78" y="4408">宣</tspan><tspan class="ad" x="47.22" y="4408">	</tspan><tspan class="ae" x="58.06" y="4408" xml:space="preserve">		</tspan><tspan class="c" x="130.06" y="4408" xml:space="preserve"> 传：</tspan><tspan x="238.26" y="4408">苏向宇</tspan><tspan x="-49.94" y="4488" xml:space="preserve">    </tspan><tspan class="af" x="-0.78" y="4488">微博</tspan><tspan class="c" x="143.22" y="4488">墙：</tspan><tspan x="239.22" y="4488" xml:space="preserve">石峻铭    刘铭羽</tspan><tspan x="-49.94" y="4568" xml:space="preserve">    </tspan><tspan class="c" x="-0.78" y="4568">校友连线：</tspan><tspan x="239.22" y="4568">冒志泓</tspan><tspan x="-49.94" y="4648" xml:space="preserve">    </tspan><tspan class="c" x="-0.78" y="4648">现场工作：</tspan><tspan x="239.22" y="4648" xml:space="preserve">罗静莹    邱一涵</tspan><tspan class="ag" x="576.37" y="4648">	</tspan><tspan x="598.07" y="4648" xml:space="preserve"> 李富哲 </tspan><tspan class="ah" x="766.64" y="4648">	</tspan><tspan class="l" x="-49.94" y="4720" xml:space="preserve">								</tspan><tspan x="238.06" y="4720">李</tspan><tspan class="r" x="286.06" y="4720">	</tspan><tspan x="310.06" y="4720" xml:space="preserve">  顺    麦崇俨   万子衿    </tspan><tspan class="ai" x="805.81" y="4720">	</tspan><tspan class="l" x="-49.94" y="4792" xml:space="preserve">								</tspan><tspan x="238.06" y="4792" xml:space="preserve">陈虹羽    欧阳浩岚    </tspan><tspan class="aj" x="672.37" y="4792">	</tspan><tspan class="l" x="706.07" y="4792" xml:space="preserve">		</tspan><tspan class="l" x="-49.94" y="4864" xml:space="preserve">								</tspan><tspan x="238.06" y="4864" xml:space="preserve">洪俊欣    杨东杰</tspan></tspan><tspan x="0" y="5024">【第八届】201</tspan><tspan class="b" x="324.1" y="5024">6</tspan><tspan x="364.13" y="5024">年华附春晚直播</tspan><tspan class="c"><tspan x="-49.94" y="5104">总负责人：</tspan><tspan class="f" x="190.06" y="5104">陈天乐</tspan><tspan x="-49.94" y="5184">拍摄组长：</tspan><tspan class="f" x="190.06" y="5184">郑键欣</tspan><tspan x="-49.94" y="5264">线路组长：</tspan><tspan class="f" x="190.06" y="5264">黄力辉</tspan><tspan x="-49.94" y="5344">音响组长：</tspan><tspan class="f" x="190.06" y="5344">张文涛</tspan><tspan x="-49.94" y="5424">宣传组长：</tspan><tspan class="f" x="190.06" y="5424">李沛泽</tspan><tspan x="-49.94" y="5504">灯光组长：</tspan><tspan class="f" x="190.06" y="5504">陈天乐</tspan><tspan x="-49.94" y="5584">后勤组长：</tspan><tspan class="f" x="190.06" y="5584">吴映茜</tspan><tspan x="-49.94" y="5664">技术组长：</tspan><tspan class="f" x="190.06" y="5664">杨东杰</tspan></tspan><tspan x="0" y="5824">【第九届】201</tspan><tspan class="b" x="324.1" y="5824">7</tspan><tspan x="364.13" y="5824">年华附春晚直播</tspan><tspan class="c"><tspan x="-49.94" y="5904">总负责人：</tspan><tspan class="f" x="190.06" y="5904">刘</tspan><tspan class="h" x="238.06" y="5904">	</tspan><tspan class="f" x="274.06" y="5904" xml:space="preserve"> 畅</tspan><tspan x="-49.94" y="5984">拍摄组长：</tspan><tspan class="f" x="190.06" y="5984">刘</tspan><tspan class="h" x="238.06" y="5984">	</tspan><tspan class="f" x="274.06" y="5984" xml:space="preserve"> 畅</tspan><tspan x="-49.94" y="6064">线路组长：</tspan><tspan class="f" x="190.06" y="6064">赵天笑</tspan><tspan x="-49.94" y="6144">音响组长：</tspan><tspan class="f" x="190.06" y="6144">林宇轩</tspan><tspan x="-49.94" y="6224">宣传组长：</tspan><tspan class="f" x="190.06" y="6224">韩明睿</tspan><tspan x="-49.94" y="6304">灯光组长：</tspan><tspan class="f" x="190.06" y="6304">韩子越</tspan><tspan x="-49.94" y="6384">后勤组长：</tspan><tspan class="f" x="190.06" y="6384">吴宇欣</tspan><tspan x="-49.94" y="6464">技术组长：</tspan><tspan class="f" x="190.06" y="6464">张煦阳</tspan></tspan><tspan x="0" y="6624">【第十届】201</tspan><tspan class="b" x="324.1" y="6624">8</tspan><tspan x="364.13" y="6624">年华附春晚直播</tspan><tspan class="c"><tspan x="-49.94" y="6704">总负责人：</tspan><tspan class="f" x="190.06" y="6704" xml:space="preserve">钟    蔚</tspan><tspan x="-49.94" y="6784">总责助理：</tspan><tspan class="f" x="190.06" y="6784">梁朝盈</tspan><tspan x="-49.94" y="6864">拍摄组长：</tspan><tspan class="f" x="190.06" y="6864">彭天熙</tspan><tspan x="-49.94" y="6944">线路组长：</tspan><tspan class="f" x="190.06" y="6944">谢梓祺</tspan><tspan x="-49.94" y="7024">音响组长：</tspan><tspan class="f" x="190.06" y="7024">雷于辉</tspan><tspan x="-49.94" y="7104">宣传组长：</tspan><tspan class="f" x="190.06" y="7104">明</tspan><tspan class="h" x="238.06" y="7104">	</tspan><tspan class="f" x="274.06" y="7104" xml:space="preserve"> 阳</tspan><tspan x="-49.94" y="7184">灯光组长：</tspan><tspan class="f" x="190.06" y="7184">邹伽欣</tspan><tspan x="-49.94" y="7264">后勤组长：</tspan><tspan class="f" x="190.06" y="7264">李子谦</tspan><tspan x="-49.94" y="7344">技术组长：</tspan><tspan class="f" x="190.06" y="7344">庄家乐</tspan></tspan><tspan x="-24" y="7504">【第十一届】201</tspan><tspan class="b" x="348.1" y="7504">9</tspan><tspan x="388.13" y="7504">年华附春晚直播</tspan><tspan class="c"><tspan x="-49.94" y="7584">总负责人：</tspan><tspan class="f" x="190.06" y="7584">岳一凡</tspan><tspan x="-49.94" y="7664">总责助理：</tspan><tspan class="f" x="190.06" y="7664">陈秉宇</tspan><tspan x="-49.94" y="7744">拍摄组长：</tspan><tspan class="f" x="190.06" y="7744">周汉锟</tspan><tspan x="-49.94" y="7824">线路组长：</tspan><tspan class="f" x="190.06" y="7824">苏韵琪</tspan><tspan x="-49.94" y="7904">音响组长：</tspan><tspan class="f" x="190.06" y="7904">李嘉琪</tspan><tspan class="g" x="334.06" y="7904">	</tspan><tspan class="h" x="346.06" y="7904">	</tspan><tspan class="f" x="382.06" y="7904">劳莘宇</tspan><tspan x="-49.94" y="7984">宣传组长：</tspan><tspan class="f" x="190.06" y="7984">龚</tspan><tspan class="h" x="238.06" y="7984">	</tspan><tspan class="f" x="274.06" y="7984" xml:space="preserve"> 睿</tspan><tspan x="-49.94" y="8064">灯光组长</tspan><tspan class="f" x="142.06" y="8064">：何</tspan><tspan class="h" x="238.06" y="8064">	</tspan><tspan class="f" x="274.06" y="8064" xml:space="preserve"> 琦</tspan><tspan class="ak" x="334.35" y="8064">	</tspan><tspan class="h" x="346.06" y="8064">	</tspan><tspan class="f" x="382.06" y="8064">李嘉茵</tspan><tspan class="h" x="526.06" y="8064">	</tspan><tspan class="f" x="562.06" y="8064">刘贞妮</tspan><tspan x="-49.94" y="8144">后勤组长：</tspan><tspan class="f" x="190.06" y="8144">谭龙信</tspan><tspan x="-49.94" y="8224">技术组长：</tspan><tspan class="f" x="190.06" y="8224">曾一炜</tspan></tspan><tspan x="-24" y="8384">【第十二届】202</tspan><tspan class="b" x="348.1" y="8384">0</tspan><tspan x="388.13" y="8384">年华附春晚直播</tspan><tspan class="c"><tspan x="-49.94" y="8464">总负责人：</tspan><tspan class="f" x="190.06" y="8464">俞姿妍</tspan><tspan x="-49.94" y="8544">总责助理：</tspan><tspan class="f" x="190.06" y="8544">薛宇翔</tspan><tspan x="-49.94" y="8624">拍摄组长：</tspan><tspan class="f" x="190.06" y="8624">戴锦涛</tspan><tspan x="-49.94" y="8704">线路组长：</tspan><tspan class="f" x="190.06" y="8704">张焜琦</tspan><tspan x="-49.94" y="8784">音响组长：</tspan><tspan class="f" x="190.06" y="8784">王晨光</tspan><tspan class="g" x="334.06" y="8784">	</tspan><tspan class="h" x="346.06" y="8784">	</tspan><tspan class="f" x="382.06" y="8784">林桂宇</tspan><tspan class="h" x="526.06" y="8784">	</tspan><tspan class="f" x="562.06" y="8784">陈宇轩</tspan><tspan x="-49.94" y="8864">宣传组长：</tspan><tspan class="f" x="190.06" y="8864">聂新果</tspan><tspan x="-49.94" y="8944">灯光组长：</tspan><tspan class="f" x="190.06" y="8944">王宇奇</tspan><tspan class="g" x="334.06" y="8944">	</tspan><tspan class="h" x="346.06" y="8944">	</tspan><tspan class="f" x="382.06" y="8944">张与非</tspan><tspan x="-49.94" y="9024">后勤组长：</tspan><tspan class="f" x="190.06" y="9024">伍孜越</tspan><tspan class="g" x="334.06" y="9024">	</tspan><tspan class="h" x="346.06" y="9024">	</tspan><tspan class="f" x="382.06" y="9024">林泽雯</tspan><tspan x="-49.94" y="9104">技术组长：</tspan><tspan class="f" x="190.06" y="9104">陈奕臻</tspan></tspan><tspan x="-24" y="9264">【第十三届】202</tspan><tspan class="b" x="348.1" y="9264">1</tspan><tspan x="388.13" y="9264">年华附春晚直播</tspan><tspan class="c"><tspan x="-49.94" y="9344">总负责人：</tspan><tspan class="f" x="190.06" y="9344">曾旖雯</tspan><tspan x="-49.94" y="9424">总责助理：</tspan><tspan class="f" x="190.06" y="9424">黄培颖</tspan><tspan class="g" x="334.06" y="9424">	</tspan><tspan class="h" x="346.06" y="9424">	</tspan><tspan class="f" x="382.06" y="9424">梁宇轩</tspan><tspan x="-49.94" y="9504">拍摄组长：</tspan><tspan class="f" x="190.06" y="9504">郑哲楷</tspan><tspan x="-49.94" y="9584">线路组长：</tspan><tspan class="f" x="190.06" y="9584">阮渝航</tspan><tspan class="g" x="334.06" y="9584">	</tspan><tspan class="h" x="346.06" y="9584">	</tspan><tspan class="f" x="382.06" y="9584">郑海梓</tspan><tspan x="-49.94" y="9664">音响组长：</tspan><tspan class="f" x="190.06" y="9664">沙雨涵</tspan><tspan class="g" x="334.06" y="9664">	</tspan><tspan class="h" x="346.06" y="9664">	</tspan><tspan class="f" x="382.06" y="9664">陈映而</tspan><tspan class="h" x="526.06" y="9664">	</tspan><tspan class="f" x="562.06" y="9664">王儒昊</tspan><tspan x="-49.94" y="9744">宣发组长：</tspan><tspan class="f" x="190.06" y="9744">朱玲仪</tspan><tspan x="-49.94" y="9824">灯光组长：</tspan><tspan class="f" x="190.06" y="9824">张佳榕</tspan><tspan class="g" x="334.06" y="9824">	</tspan><tspan class="h" x="346.06" y="9824">	</tspan><tspan class="f" x="382.06" y="9824">陈雨咏</tspan><tspan x="-49.94" y="9904">技术组长</tspan><tspan class="f" x="142.06" y="9904">：曹俊侯</tspan></tspan><tspan x="206.06" y="10064">【第十四届】</tspan><tspan class="c"><tspan x="-49.94" y="10144">总负责人：</tspan><tspan class="f" x="190.06" y="10144">赖天欣</tspan><tspan x="-49.94" y="10224">总责助理：</tspan><tspan class="f" x="190.06" y="10224">张子扬</tspan><tspan class="g" x="334.06" y="10224">	</tspan><tspan class="h" x="346.06" y="10224">	</tspan><tspan class="f" x="382.06" y="10224">江胤辰</tspan><tspan x="-49.94" y="10304">拍摄组长：</tspan><tspan class="f" x="190.06" y="10304">曾子睿</tspan><tspan class="g" x="334.06" y="10304">	</tspan><tspan class="h" x="346.06" y="10304">	</tspan><tspan class="f" x="382.06" y="10304">彭洪亮</tspan><tspan x="-49.94" y="10384">线路组长：</tspan><tspan class="f" x="190.06" y="10384">叶子嵘</tspan><tspan class="g" x="334.06" y="10384">	</tspan><tspan class="h" x="346.06" y="10384">	</tspan><tspan class="f" x="382.06" y="10384">吴杨婕</tspan><tspan x="-49.94" y="10464">音响组长：庄鸿铭</tspan><tspan class="al" x="334.06" y="10464">	</tspan><tspan class="e" x="346.06" y="10464">	</tspan><tspan x="382.06" y="10464">陈皓明</tspan><tspan x="-49.94" y="10544">宣发组长：</tspan><tspan class="f" x="190.06" y="10544">钟欣玥</tspan><tspan x="-49.94" y="10624">灯光组长：</tspan><tspan class="f" x="190.06" y="10624">袁</tspan><tspan class="h" x="238.06" y="10624">	</tspan><tspan class="f" x="274.06" y="10624" xml:space="preserve"> 宇</tspan><tspan class="ak" x="334.35" y="10624">	</tspan><tspan class="h" x="346.06" y="10624">	</tspan><tspan class="f" x="382.06" y="10624">景</tspan><tspan class="am" x="430.06" y="10624">	</tspan><tspan class="f" x="454.06" y="10624" xml:space="preserve">  象</tspan><tspan x="-49.94" y="10704">技术组长：</tspan><tspan class="f" x="190.06" y="10704">刘孟阳</tspan><tspan class="g" x="334.06" y="10704">	</tspan><tspan class="h" x="346.06" y="10704">	</tspan><tspan class="f" x="382.06" y="10704">林俊斌</tspan></tspan></text>
  <text class="an" transform="translate(80.33 47.52)">“<tspan class="ao" x="55.35" y="0">华附直播团</tspan><tspan class="ap" x="345.6" y="0">队</tspan><tspan class="aq" x="400.95" y="0">”</tspan><tspan class="ao" x="434.7" y="0">历届负责人员名录</tspan></text>
  <text class="ar" transform="translate(396.28 107.8)"><tspan class="as">（</tspan><tspan x="41.2" y="0">不完全统计)</tspan></text>
</svg>
